<svg width="46" height="50" viewBox="0 0 46 50" fill="none" xmlns="http://www.w3.org/2000/svg">
<path d="M2.68262 29.9186C2.68262 40.6271 11.3636 49.3081 22.0721 49.3081C25.9952 49.3081 29.6462 48.143 32.6979 46.1399L39.8197 46.7179L38.1742 40.7238C40.2502 37.6362 41.4616 33.9189 41.4616 29.9186C41.4616 19.21 32.7807 10.5291 22.0721 10.5291C11.3636 10.5291 2.68262 19.21 2.68262 29.9186Z" fill="black"/>
<mask id="path-2-outside-1_1_2787" maskUnits="userSpaceOnUse" x="0" y="0.586426" width="46" height="46" fill="black">
<rect fill="white" y="0.586426" width="46" height="46"/>
<path d="M2 23.1866C2 34.5637 11.223 43.7867 22.6001 43.7867C26.7682 43.7867 30.6471 42.5488 33.8893 40.4207L41.4558 41.0348L39.7076 34.6665C41.9132 31.3861 43.2003 27.4366 43.2003 23.1866C43.2003 11.8094 33.9773 2.58643 22.6001 2.58643C11.223 2.58643 2 11.8094 2 23.1866Z"/>
</mask>
<path d="M2 23.1866C2 34.5637 11.223 43.7867 22.6001 43.7867C26.7682 43.7867 30.6471 42.5488 33.8893 40.4207L41.4558 41.0348L39.7076 34.6665C41.9132 31.3861 43.2003 27.4366 43.2003 23.1866C43.2003 11.8094 33.9773 2.58643 22.6001 2.58643C11.223 2.58643 2 11.8094 2 23.1866Z" fill="#006DFF"/>
<path d="M33.8893 40.4207L34.0382 38.5863L33.408 38.5351L32.8794 38.8821L33.8893 40.4207ZM41.4558 41.0348L41.307 42.8693C41.9054 42.9178 42.4899 42.6714 42.873 42.2091C43.2561 41.7468 43.3896 41.1266 43.2306 40.5476L41.4558 41.0348ZM39.7076 34.6665L38.1803 33.6395L37.7094 34.3399L37.9328 35.1537L39.7076 34.6665ZM22.6001 41.9463C12.2394 41.9463 3.84044 33.5472 3.84044 23.1866H0.159561C0.159561 35.5801 10.2065 45.6271 22.6001 45.6271V41.9463ZM3.84044 23.1866C3.84044 12.8259 12.2394 4.42686 22.6001 4.42686V0.745987C10.2065 0.745987 0.159561 10.793 0.159561 23.1866H3.84044ZM22.6001 4.42686C32.9608 4.42686 41.3598 12.8259 41.3598 23.1866H45.0407C45.0407 10.793 34.9937 0.745987 22.6001 0.745987V4.42686ZM32.8794 38.8821C29.928 40.8193 26.3985 41.9463 22.6001 41.9463V45.6271C27.1379 45.6271 31.3662 44.2783 34.8992 41.9593L32.8794 38.8821ZM33.7404 42.2551L41.307 42.8693L41.6047 39.2004L34.0382 38.5863L33.7404 42.2551ZM41.3598 23.1866C41.3598 27.0595 40.1882 30.6533 38.1803 33.6395L41.2349 35.6934C43.6382 32.119 45.0407 27.8138 45.0407 23.1866H41.3598ZM43.2306 40.5476L41.4824 34.1792L37.9328 35.1537L39.6811 41.5221L43.2306 40.5476Z" fill="black" mask="url(#path-2-outside-1_1_2787)"/>
<g filter="url(#filter0_d_1_2787)">
<path d="M9.7627 21.9675C9.7627 13.1921 18.0297 10.356 22.8007 16.297C27.1984 10.5078 35.3769 12.7376 35.3769 21.9675C35.3769 28.9065 22.8007 34.6699 22.8007 34.6699C22.8007 34.6699 9.7627 29.1478 9.7627 21.9675Z" fill="white"/>
</g>
<defs>
<filter id="filter0_d_1_2787" x="9.7627" y="13.1128" width="25.6143" height="23.9497" filterUnits="userSpaceOnUse" color-interpolation-filters="sRGB">
<feFlood flood-opacity="0" result="BackgroundImageFix"/>
<feColorMatrix in="SourceAlpha" type="matrix" values="0 0 0 0 0 0 0 0 0 0 0 0 0 0 0 0 0 0 127 0" result="hardAlpha"/>
<feOffset dy="2.39257"/>
<feComposite in2="hardAlpha" operator="out"/>
<feColorMatrix type="matrix" values="0 0 0 0 0 0 0 0 0 0 0 0 0 0 0 0 0 0 0.48 0"/>
<feBlend mode="normal" in2="BackgroundImageFix" result="effect1_dropShadow_1_2787"/>
<feBlend mode="normal" in="SourceGraphic" in2="effect1_dropShadow_1_2787" result="shape"/>
</filter>
</defs>
</svg>
