<svg width="46" height="49" viewBox="0 0 46 49" fill="none" xmlns="http://www.w3.org/2000/svg">
<path d="M3.36475 29.3321C3.36475 40.0407 12.0457 48.7216 22.7543 48.7216C26.6773 48.7216 30.3283 47.5565 33.38 45.5535L40.5019 46.1315L38.8563 40.1374C40.9323 37.0498 42.1438 33.3324 42.1438 29.3321C42.1438 18.6236 33.4628 9.94263 22.7543 9.94263C12.0457 9.94263 3.36475 18.6236 3.36475 29.3321Z" fill="black"/>
<mask id="path-2-outside-1_1_2805" maskUnits="userSpaceOnUse" x="0.682129" y="0" width="46" height="46" fill="black">
<rect fill="white" x="0.682129" width="46" height="46"/>
<path d="M2.68213 22.6001C2.68213 33.9773 11.9051 43.2003 23.2823 43.2003C27.4503 43.2003 31.3292 41.9624 34.5715 39.8343L42.138 40.4484L40.3897 34.08C42.5953 30.7997 43.8824 26.8502 43.8824 22.6001C43.8824 11.223 34.6594 2 23.2823 2C11.9051 2 2.68213 11.223 2.68213 22.6001Z"/>
</mask>
<path d="M2.68213 22.6001C2.68213 33.9773 11.9051 43.2003 23.2823 43.2003C27.4503 43.2003 31.3292 41.9624 34.5715 39.8343L42.138 40.4484L40.3897 34.08C42.5953 30.7997 43.8824 26.8502 43.8824 22.6001C43.8824 11.223 34.6594 2 23.2823 2C11.9051 2 2.68213 11.223 2.68213 22.6001Z" fill="#006DFF"/>
<path d="M34.5715 39.8343L34.7203 37.9999L34.0901 37.9487L33.5615 38.2957L34.5715 39.8343ZM42.138 40.4484L41.9891 42.2828C42.5875 42.3314 43.1721 42.085 43.5551 41.6227C43.9382 41.1603 44.0717 40.5402 43.9128 39.9612L42.138 40.4484ZM40.3897 34.08L38.8624 33.0531L38.3915 33.7534L38.6149 34.5673L40.3897 34.08ZM23.2823 41.3598C12.9216 41.3598 4.52257 32.9608 4.52257 22.6001H0.84169C0.84169 34.9937 10.8887 45.0407 23.2823 45.0407V41.3598ZM4.52257 22.6001C4.52257 12.2394 12.9216 3.84044 23.2823 3.84044V0.159561C10.8887 0.159561 0.84169 10.2065 0.84169 22.6001H4.52257ZM23.2823 3.84044C33.643 3.84044 42.042 12.2394 42.042 22.6001H45.7228C45.7228 10.2065 35.6758 0.159561 23.2823 0.159561V3.84044ZM33.5615 38.2957C30.6101 40.2329 27.0806 41.3598 23.2823 41.3598V45.0407C27.82 45.0407 32.0483 43.6919 35.5814 41.3729L33.5615 38.2957ZM34.4226 41.6687L41.9891 42.2828L42.2869 38.614L34.7203 37.9999L34.4226 41.6687ZM42.042 22.6001C42.042 26.4731 40.8703 30.0668 38.8624 33.0531L41.917 35.107C44.3204 31.5325 45.7228 27.2273 45.7228 22.6001H42.042ZM43.9128 39.9612L42.1645 33.5928L38.6149 34.5673L40.3632 40.9356L43.9128 39.9612Z" fill="black" mask="url(#path-2-outside-1_1_2805)"/>
<g clip-path="url(#clip0_1_2805)">
<g filter="url(#filter0_d_1_2805)">
<path d="M20.2822 27.6001H18.2822C16.9561 27.6001 15.6844 27.0733 14.7467 26.1356C13.809 25.1979 13.2822 23.9262 13.2822 22.6001C13.2822 21.274 13.809 20.0022 14.7467 19.0646C15.6844 18.1269 16.9561 17.6001 18.2822 17.6001H20.2822M26.2822 17.6001H28.2822C29.6083 17.6001 30.8801 18.1269 31.8178 19.0646C32.7554 20.0022 33.2822 21.274 33.2822 22.6001C33.2822 23.9262 32.7554 25.1979 31.8178 26.1356C30.8801 27.0733 29.6083 27.6001 28.2822 27.6001H26.2822M19.2822 22.6001H27.2822" stroke="white" stroke-width="3" stroke-linecap="round" stroke-linejoin="round" shape-rendering="crispEdges"/>
</g>
</g>
<defs>
<filter id="filter0_d_1_2805" x="11.7822" y="16.1001" width="23" height="15" filterUnits="userSpaceOnUse" color-interpolation-filters="sRGB">
<feFlood flood-opacity="0" result="BackgroundImageFix"/>
<feColorMatrix in="SourceAlpha" type="matrix" values="0 0 0 0 0 0 0 0 0 0 0 0 0 0 0 0 0 0 127 0" result="hardAlpha"/>
<feOffset dy="2"/>
<feComposite in2="hardAlpha" operator="out"/>
<feColorMatrix type="matrix" values="0 0 0 0 0 0 0 0 0 0 0 0 0 0 0 0 0 0 0.58 0"/>
<feBlend mode="normal" in2="BackgroundImageFix" result="effect1_dropShadow_1_2805"/>
<feBlend mode="normal" in="SourceGraphic" in2="effect1_dropShadow_1_2805" result="shape"/>
</filter>
<clipPath id="clip0_1_2805">
<rect width="24" height="24" fill="white" transform="translate(11.2822 10.6001)"/>
</clipPath>
</defs>
</svg>
